<?xml version="1.0" encoding="utf-8"?>
<!-- Generator: Adobe Illustrator 24.0.3, SVG Export Plug-In . SVG Version: 6.00 Build 0)  -->
<svg version="1.1" id="Layer_1" xmlns="http://www.w3.org/2000/svg" xmlns:xlink="http://www.w3.org/1999/xlink" x="0px" y="0px"
	 viewBox="0 0 525 218" style="enable-background:new 0 0 525 218;" xml:space="preserve">
<style type="text/css">
	.st0{fill:#AF1D53;}
	.st1{fill:none;stroke:#AF1D53;stroke-width:7;stroke-linecap:round;stroke-linejoin:round;stroke-miterlimit:10;}
	.st2{fill:none;stroke:#CE7A9C;stroke-width:7;stroke-linecap:round;stroke-linejoin:round;stroke-miterlimit:10;}
</style>
<g id="Layer_2_1_">
	<path class="st0" d="M254.7,154.1c0,0,0,18.9,0,21.3s2.8,4,5.7,2.1c3-1.9,27.5-15.8,32.7-18.8s4.3-4.6,4.3-4.6s0.9-1.7-4.3-4.6
		c-5.2-3-29.7-16.9-32.7-18.8c-3-1.9-5.7-0.3-5.7,2.1C254.7,135.3,254.7,154.1,254.7,154.1z"/>
	<path class="st0" d="M425.1,151c-3.1-1.8-18-10.2-19.8-11.4c-1.8-1.1-3.5-0.2-3.5,1.3c0,1.1,0,8.3,0,11.4c-0.4-0.4-1-0.8-1.9-1.3
		c-3.1-1.8-18-10.2-19.8-11.4c-1.8-1.1-3.5-0.2-3.5,1.3s0,12.9,0,12.9s0,11.4,0,12.9s1.7,2.4,3.5,1.3c1.8-1.1,16.6-9.6,19.8-11.4
		c0.9-0.5,1.5-1,1.9-1.3c0,3.1,0,10.3,0,11.4c0,1.5,1.7,2.4,3.5,1.3c1.8-1.1,16.6-9.6,19.8-11.4c3.1-1.8,2.6-2.8,2.6-2.8
		S428.3,152.8,425.1,151z"/>
	<path class="st0" d="M120.7,151c3.1-1.8,18-10.2,19.8-11.4c1.8-1.1,3.5-0.2,3.5,1.3c0,1.1,0,8.3,0,11.4c0.4-0.4,1-0.8,1.9-1.3
		c3.1-1.8,18-10.2,19.8-11.4c1.8-1.1,3.5-0.2,3.5,1.3s0,12.9,0,12.9s0,11.4,0,12.9s-1.7,2.4-3.5,1.3c-1.8-1.1-16.6-9.6-19.8-11.4
		c-0.9-0.5-1.5-1-1.9-1.3c0,3.1,0,10.3,0,11.4c0,1.5-1.7,2.4-3.5,1.3c-1.8-1.1-16.6-9.6-19.8-11.4c-3.1-1.8-2.6-2.8-2.6-2.8
		S117.5,152.8,120.7,151z"/>
	<line class="st1" x1="65.2" y1="70.7" x2="481.1" y2="70.7"/>
	<line class="st2" x1="192.1" y1="70.7" x2="481.1" y2="70.7"/>
	<ellipse class="st0" cx="194.2" cy="70.3" rx="7.1" ry="7"/>
</g>
</svg>
